<svg width="165" height="42" viewBox="0 0 165 42" fill="none" xmlns="http://www.w3.org/2000/svg">
<path d="M21.8492 6.15401C19.1156 3.42034 14.6834 3.42034 11.9497 6.15401L2.05025 16.0535C-0.683417 18.7872 -0.683417 23.2193 2.05025 25.953L11.9497 35.8525C14.6834 38.5862 19.1156 38.5862 21.8492 35.8525L26.5727 31.129C22.6405 29.612 19.8509 25.7964 19.8509 21.3293C19.8509 16.6841 22.8673 12.7435 27.0482 11.3592C26.9664 11.2733 26.8833 11.1881 26.799 11.1038L21.8492 6.15401Z" fill="#875BF7"/>
<path d="M26.573 31.1323C27.7452 31.5845 29.019 31.8324 30.3507 31.8324C36.1497 31.8324 40.8507 27.1314 40.8507 21.3324C40.8507 15.5334 36.1497 10.8324 30.3507 10.8324C29.197 10.8324 28.0868 11.0185 27.0485 11.3622C32.2655 16.8468 32.1825 25.5228 26.7994 30.9059L26.573 31.1323Z" fill="#EE46BC"/>
<path d="M60.9061 28.875L59.6304 25.2367H53.039L51.7396 28.875H48.125L54.5038 11.9122H58.4255L64.757 28.875H60.9061ZM56.3701 15.834L54.0549 22.3781H58.6381L56.3701 15.834Z" fill="#03151A"/>
<path d="M68.9025 28.875H65.5949V11.9122H68.9025V28.875Z" fill="#03151A"/>
<path d="M83.4944 22.5671C83.4944 26.2999 81.2973 29.1112 77.8953 29.1112C76.4069 29.1112 75.1311 28.4734 74.1861 27.2449V33.4346H70.9023V16.2592H73.9263V18.102C74.8949 16.7554 76.2888 16.023 77.8953 16.023C81.2973 16.023 83.4944 18.858 83.4944 22.5671ZM80.116 22.5671C80.116 20.2046 78.7694 18.9289 77.1629 18.9289C75.5564 18.9289 74.2098 20.181 74.2098 22.5671C74.2098 24.9532 75.5564 26.1817 77.1629 26.1817C78.7694 26.1817 80.116 24.9769 80.116 22.5671Z" fill="#03151A"/>
<path d="M87.9376 22.0001V28.875H84.6537V11.9122H87.9376V17.913C88.8117 16.7554 89.8984 16.023 91.5522 16.023C94.0801 16.023 95.8283 17.6767 95.8283 20.7244V28.875H92.5681V21.8347C92.5681 19.9684 91.8357 18.9289 90.3473 18.9289C89.0479 18.9289 87.9376 19.9684 87.9376 22.0001Z" fill="#03151A"/>
<path d="M105.226 28.875V27.3157C104.399 28.497 103.147 29.1112 101.422 29.1112C98.7997 29.1112 97.0515 27.5756 97.0515 25.2131C97.0515 22.7561 99.036 21.4331 102.721 21.4331C103.43 21.4331 104.044 21.4804 104.824 21.5749V20.8189C104.824 19.4014 104.021 18.5745 102.651 18.5745C101.233 18.5745 100.383 19.4014 100.264 20.8189H97.3113C97.5003 17.913 99.603 16.023 102.651 16.023C105.958 16.023 107.895 17.8421 107.895 20.937V28.875H105.226ZM100.146 25.1186C100.146 26.1817 100.902 26.8432 102.131 26.8432C103.808 26.8432 104.824 25.9219 104.824 24.4571V23.5594C104.044 23.4412 103.501 23.394 102.934 23.394C101.068 23.394 100.146 23.9846 100.146 25.1186Z" fill="#03151A"/>
<path d="M121.763 28.875L118.597 17.0152L115.431 28.875H111.793L107.446 11.9122H110.942L113.683 23.4176L116.801 11.9122H120.463L123.487 23.4649L126.251 11.9122H129.772L125.401 28.875H121.763Z" fill="#03151A"/>
<path d="M137.135 28.875V27.3157C136.308 28.497 135.056 29.1112 133.332 29.1112C130.709 29.1112 128.961 27.5756 128.961 25.2131C128.961 22.7561 130.945 21.4331 134.631 21.4331C135.34 21.4331 135.954 21.4804 136.734 21.5749V20.8189C136.734 19.4014 135.93 18.5745 134.56 18.5745C133.143 18.5745 132.292 19.4014 132.174 20.8189H129.221C129.41 17.913 131.512 16.023 134.56 16.023C137.868 16.023 139.805 17.8421 139.805 20.937V28.875H137.135ZM132.056 25.1186C132.056 26.1817 132.812 26.8432 134.04 26.8432C135.718 26.8432 136.734 25.9219 136.734 24.4571V23.5594C135.954 23.4412 135.411 23.394 134.844 23.394C132.977 23.394 132.056 23.9846 132.056 25.1186Z" fill="#03151A"/>
<path d="M152.615 16.2592L147.984 28.875H144.393L139.739 16.2592H143.283L146.283 25.1422L149.307 16.2592H152.615Z" fill="#03151A"/>
<path d="M158.153 29.0876C154.373 29.0876 151.846 26.4652 151.846 22.5199C151.846 18.7635 154.468 16.023 158.106 16.023C162.099 16.023 164.745 19.2596 164.154 23.3704H155.2C155.413 25.4257 156.405 26.5597 158.083 26.5597C159.524 26.5597 160.492 25.851 160.87 24.5989H164.131C163.422 27.4575 161.225 29.0876 158.153 29.0876ZM158.035 18.4327C156.5 18.4327 155.531 19.425 155.248 21.2914H160.681C160.587 19.5431 159.595 18.4327 158.035 18.4327Z" fill="#03151A"/>
</svg>
