<svg width="136" height="42" viewBox="0 0 136 42" fill="none" xmlns="http://www.w3.org/2000/svg">
<path fill-rule="evenodd" clip-rule="evenodd" d="M17.5 38.5C27.165 38.5 35 30.665 35 21C35 11.335 27.165 3.5 17.5 3.5C7.835 3.5 0 11.335 0 21C0 30.665 7.835 38.5 17.5 38.5ZM22.9594 11.6522C23.2251 10.7083 22.3091 10.1501 21.4725 10.7461L9.79397 19.0659C8.88669 19.7122 9.0294 21 10.0083 21H13.0836V20.9762H19.0772L14.1936 22.6993L12.0406 30.3478C11.7749 31.2917 12.6908 31.8499 13.5275 31.2539L25.206 22.9342C26.1133 22.2878 25.9705 21 24.9917 21H20.3281L22.9594 11.6522Z" fill="#155EEF"/>
<path d="M112.872 14.763C113.264 15.1223 113.738 15.302 114.293 15.302C114.865 15.302 115.338 15.1223 115.714 14.763C116.09 14.4036 116.277 13.93 116.277 13.342C116.277 12.754 116.09 12.2803 115.714 11.921C115.338 11.5616 114.865 11.382 114.293 11.382C113.738 11.382 113.264 11.5616 112.872 11.921C112.496 12.2803 112.308 12.754 112.308 13.342C112.308 13.93 112.496 14.4036 112.872 14.763Z" fill="#03151A"/>
<path fill-rule="evenodd" clip-rule="evenodd" d="M54.236 28.336C53.4683 28.6953 52.57 28.875 51.541 28.875H43.75V11.725H51.443C52.4883 11.725 53.3948 11.9046 54.1625 12.264C54.9465 12.607 55.5508 13.1051 55.9755 13.7585C56.4165 14.3955 56.637 15.1631 56.637 16.0615V16.3065C56.637 17.0905 56.49 17.7356 56.196 18.242C55.902 18.732 55.5508 19.1158 55.1425 19.3935C54.7505 19.6548 54.3748 19.8426 54.0155 19.957V20.398C54.3748 20.496 54.7668 20.6838 55.1915 20.9615C55.6162 21.2228 55.9755 21.6066 56.2695 22.113C56.5798 22.6193 56.735 23.2808 56.735 24.0975V24.3425C56.735 25.2898 56.5145 26.1065 56.0735 26.7925C55.6325 27.4621 55.02 27.9766 54.236 28.336ZM52.864 22.2355C52.4393 21.8925 51.8677 21.721 51.149 21.721H46.984V25.935H51.149C51.8513 25.935 52.4148 25.7635 52.8395 25.4205C53.2805 25.0775 53.501 24.5875 53.501 23.9505V23.7055C53.501 23.0685 53.2887 22.5785 52.864 22.2355ZM52.766 15.1795C52.3413 14.8365 51.786 14.665 51.1 14.665H46.984V18.781H51.1C51.7697 18.781 52.3168 18.6095 52.7415 18.2665C53.1825 17.9235 53.403 17.4498 53.403 16.8455V16.6005C53.403 15.9798 53.1907 15.5061 52.766 15.1795Z" fill="#03151A"/>
<path fill-rule="evenodd" clip-rule="evenodd" d="M64.0285 29.218C62.8199 29.218 61.7337 28.973 60.77 28.483C59.8064 27.993 59.0469 27.2825 58.4915 26.3515C57.9362 25.4205 57.6585 24.3016 57.6585 22.995V22.603C57.6585 21.2963 57.9362 20.1775 58.4915 19.2465C59.0469 18.3155 59.8064 17.605 60.77 17.115C61.7337 16.625 62.8199 16.38 64.0285 16.38C65.2372 16.38 66.3234 16.625 67.287 17.115C68.2507 17.605 69.0102 18.3155 69.5655 19.2465C70.1209 20.1775 70.3985 21.2963 70.3985 22.603V22.995C70.3985 24.3016 70.1209 25.4205 69.5655 26.3515C69.0102 27.2825 68.2507 27.993 67.287 28.483C66.3234 28.973 65.2372 29.218 64.0285 29.218ZM64.0285 26.474C64.9759 26.474 65.7599 26.1718 66.3805 25.5675C67.0012 24.9468 67.3115 24.0648 67.3115 22.9215V22.6765C67.3115 21.5331 67.0012 20.6593 66.3805 20.055C65.7762 19.4343 64.9922 19.124 64.0285 19.124C63.0812 19.124 62.2972 19.4343 61.6765 20.055C61.0559 20.6593 60.7455 21.5331 60.7455 22.6765V22.9215C60.7455 24.0648 61.0559 24.9468 61.6765 25.5675C62.2972 26.1718 63.0812 26.474 64.0285 26.474Z" fill="#03151A"/>
<path d="M81.9608 28.875C81.1605 28.875 80.5071 28.63 80.0008 28.14C79.5108 27.6336 79.2658 26.964 79.2658 26.131V19.271H76.2278V16.723H79.2658V12.95H82.3528V16.723H85.6848V19.271H82.3528V25.592C82.3528 26.082 82.5815 26.327 83.0388 26.327H85.3908V28.875H81.9608Z" fill="#03151A"/>
<path d="M88.4057 28.189C89.4183 28.875 90.7168 29.218 92.3012 29.218C93.8528 29.218 95.086 28.875 96.0007 28.189C96.9317 27.4866 97.3972 26.4985 97.3972 25.2245C97.3972 24.3751 97.1767 23.7055 96.7357 23.2155C96.311 22.7091 95.723 22.3253 94.9716 22.064C94.2366 21.7863 93.4118 21.5658 92.4972 21.4025L91.8111 21.28C91.2558 21.182 90.8148 21.0431 90.4881 20.8635C90.1615 20.6675 89.9981 20.3735 89.9981 19.9815C89.9981 19.6221 90.1533 19.3445 90.4636 19.1485C90.774 18.9361 91.2231 18.83 91.8111 18.83C92.3992 18.83 92.8892 18.9606 93.2812 19.222C93.6895 19.4833 93.959 19.9243 94.0896 20.545L96.9562 19.663C96.6785 18.683 96.0905 17.8908 95.1922 17.2865C94.2938 16.6821 93.1668 16.38 91.8111 16.38C90.3738 16.38 89.2142 16.7066 88.3322 17.36C87.4502 17.997 87.0092 18.9198 87.0092 20.1285C87.0092 20.9288 87.2215 21.5821 87.6462 22.0885C88.0708 22.5948 88.6343 22.995 89.3367 23.289C90.039 23.5666 90.8148 23.7871 91.6642 23.9505L92.3502 24.073C93.0688 24.2036 93.5915 24.3751 93.9182 24.5875C94.2448 24.7835 94.4082 25.0693 94.4082 25.445C94.4082 25.8206 94.2366 26.1391 93.8937 26.4005C93.5507 26.6455 93.0198 26.768 92.3012 26.768C91.8275 26.768 91.3865 26.7026 90.9781 26.572C90.5861 26.425 90.2513 26.1881 89.9737 25.8615C89.7123 25.5348 89.5245 25.0856 89.4102 24.514L86.5681 25.249C86.7805 26.523 87.393 27.503 88.4057 28.189Z" fill="#03151A"/>
<path d="M102.748 20.0795C102.226 20.7001 101.964 21.574 101.964 22.701V28.875H98.8773V11.725H101.964V18.2175H102.405C102.536 17.9561 102.74 17.6948 103.018 17.4335C103.295 17.1721 103.663 16.9598 104.12 16.7965C104.594 16.6168 105.19 16.527 105.909 16.527C106.856 16.527 107.681 16.7475 108.383 17.1885C109.102 17.6131 109.657 18.2093 110.049 18.977C110.441 19.7283 110.637 20.6103 110.637 21.623V28.875H107.55V21.868C107.55 20.9533 107.322 20.2673 106.864 19.81C106.423 19.3526 105.786 19.124 104.953 19.124C104.006 19.124 103.271 19.4425 102.748 20.0795Z" fill="#03151A"/>
<path d="M129.934 28.14C129.444 27.6336 129.199 26.964 129.199 26.131V19.271H123.128V28.875H120.041V19.271H116.954V16.723H120.041V14.469C120.041 13.636 120.286 12.9745 120.776 12.4845C121.283 11.9781 121.936 11.725 122.736 11.725H125.921V14.273H123.814C123.357 14.273 123.128 14.518 123.128 15.008V16.723H129.199V12.95H132.286V16.723H135.618V19.271H132.286V25.592C132.286 26.082 132.515 26.327 132.972 26.327H135.324V28.875H131.894C131.094 28.875 130.44 28.63 129.934 28.14Z" fill="#03151A"/>
<path d="M112.749 16.723V28.875H115.836V16.723H112.749Z" fill="#03151A"/>
<path d="M72.023 11.725V28.875H75.11V11.725H72.023Z" fill="#03151A"/>
</svg>
