<svg width="168" height="42" viewBox="0 0 168 42" fill="none" xmlns="http://www.w3.org/2000/svg">
<path fill-rule="evenodd" clip-rule="evenodd" d="M30.3111 12.25V19.2931H21.5876V17.2869L30.3111 12.25Z" fill="#1570EF"/>
<path opacity="0.9" fill-rule="evenodd" clip-rule="evenodd" d="M30.3093 12.2501L21.5857 17.287L15.1534 13.5738V3.5L30.3093 12.2501Z" fill="#1570EF"/>
<path opacity="0.8" fill-rule="evenodd" clip-rule="evenodd" d="M15.1554 3.5V13.5738L8.72504 17.287L0.00152588 12.2501L15.1554 3.5Z" fill="#1570EF"/>
<path opacity="0.7" fill-rule="evenodd" clip-rule="evenodd" d="M8.72351 17.287V24.713L0 29.7495V12.2501L8.72351 17.287Z" fill="#1570EF"/>
<path opacity="0.6" fill-rule="evenodd" clip-rule="evenodd" d="M15.1539 28.4261V38.4999L0 29.7494L8.72351 24.7129L15.1539 28.4261Z" fill="#1570EF"/>
<path opacity="0.5" fill-rule="evenodd" clip-rule="evenodd" d="M30.3093 29.7495L15.1534 38.5V28.4262L21.5857 24.713L30.3093 29.7495Z" fill="#1570EF"/>
<path opacity="0.4" fill-rule="evenodd" clip-rule="evenodd" d="M30.3111 22.7069V29.7496L21.5876 24.7131V22.7069H30.3111Z" fill="#1570EF"/>
<path d="M54.1155 22.8506C53.4304 26.8905 50.8316 29.253 46.8154 29.253C41.8541 29.253 38.7356 25.473 38.7356 20.5118C38.7356 15.5269 41.8541 11.7233 46.8154 11.7233C50.6899 11.7233 53.3123 13.9913 54.0446 17.8658L50.2883 18.0311C49.8866 15.9521 48.6109 14.7709 46.7445 14.7709C43.7914 14.7709 42.4448 17.2515 42.4448 20.5118C42.4448 23.7484 43.815 26.2054 46.7445 26.2054C48.6818 26.2054 49.9811 24.9296 50.3355 22.6853L54.1155 22.8506Z" fill="#03151A"/>
<path d="M55.1436 20.2283C55.6397 17.5586 57.6951 16.0703 60.9789 16.0703C64.7826 16.0703 66.7434 17.9366 66.7434 21.5276V25.4494C66.7434 26.2763 67.0742 26.4416 67.5231 26.4416H67.9956V28.875L67.3577 28.8986C66.5308 28.9223 64.0974 29.1585 63.7431 26.985C63.1524 28.2608 61.7113 29.1585 59.4433 29.1585C56.9154 29.1585 54.9546 27.7883 54.9546 25.5911C54.9546 23.2523 56.6792 22.3781 59.7032 21.7639L63.1524 21.0788C63.1288 19.2596 62.4201 18.4091 60.9789 18.4091C59.7741 18.4091 59.0181 19.0706 58.7346 20.4173L55.1436 20.2283ZM58.6164 25.4494C58.6164 26.229 59.2779 26.8433 60.5537 26.8433C62.0893 26.8433 63.1997 25.6856 63.1997 23.4413V23.2995L61.1207 23.6775C59.6796 23.961 58.6164 24.1736 58.6164 25.4494Z" fill="#03151A"/>
<path d="M69.251 12.1013H72.842V25.2368C72.842 25.851 73.1728 26.2054 73.787 26.2054H74.6848V28.875H72.7475C70.6685 28.875 69.251 27.6229 69.251 25.3785V12.1013Z" fill="#03151A"/>
<path d="M75.2591 22.6144C75.2591 18.6454 77.8106 16.0703 81.6851 16.0703C85.1344 16.0703 87.8276 18.4564 87.804 22.8743V23.5358H78.9919C79.0864 25.4021 80.0786 26.5125 81.6851 26.5125C82.7246 26.5125 83.646 25.9219 84.0476 24.9533L87.6386 25.2131C86.8826 27.6465 84.5438 29.1585 81.6851 29.1585C77.8106 29.1585 75.2591 26.5834 75.2591 22.6144ZM79.0155 21.3859H84.1894C84.0004 19.4959 82.9136 18.7163 81.6851 18.7163C80.1731 18.7163 79.2045 19.7321 79.0155 21.3859Z" fill="#03151A"/>
<path d="M96.8134 20.4173C96.6244 19.2596 95.6322 18.5509 94.5454 18.5509C93.4823 18.5509 92.6554 19.1179 92.7027 20.0156C92.7499 20.937 93.8131 21.3386 94.9943 21.5276C98.6798 22.1183 100.499 23.0869 100.499 25.4494C100.499 27.9536 98.1364 29.1585 94.9234 29.1585C91.2616 29.1585 88.9227 27.5756 88.7337 24.906L92.3247 24.717C92.5373 25.9219 93.4114 26.6543 94.8526 26.6543C95.7503 26.6543 96.8371 26.2763 96.8371 25.3785C96.8134 24.3154 95.6086 24.1264 94.4037 23.8665C90.9544 23.205 89.0172 22.3545 89.0172 20.0393C89.0172 17.535 91.1198 16.0466 94.6872 16.0466C97.8529 16.0466 99.9792 17.6531 100.404 20.2755L96.8134 20.4173Z" fill="#03151A"/>
<path d="M110.307 21.1496C110.094 19.6376 109.102 18.8108 107.85 18.8108C106.078 18.8108 105.086 20.2046 105.086 22.6144C105.086 25.0241 106.078 26.418 107.85 26.418C109.173 26.418 110.141 25.5911 110.354 23.961L114.04 24.1028C113.709 27.2213 111.181 29.1585 107.85 29.1585C103.975 29.1585 101.424 26.5834 101.424 22.6144C101.424 18.6454 103.975 16.0703 107.85 16.0703C111.086 16.0703 113.638 17.9366 113.969 20.9843L110.307 21.1496Z" fill="#03151A"/>
<path d="M114.691 22.6144C114.691 18.6454 117.242 16.0703 121.117 16.0703C124.566 16.0703 127.259 18.4564 127.236 22.8743V23.5358H118.423C118.518 25.4021 119.51 26.5125 121.117 26.5125C122.156 26.5125 123.078 25.9219 123.479 24.9533L127.07 25.2131C126.314 27.6465 123.975 29.1585 121.117 29.1585C117.242 29.1585 114.691 26.5834 114.691 22.6144ZM118.447 21.3859H123.621C123.432 19.4959 122.345 18.7163 121.117 18.7163C119.605 18.7163 118.636 19.7321 118.447 21.3859Z" fill="#03151A"/>
<path d="M128.572 16.3538H131.785L131.879 18.3619C132.565 16.7081 133.958 16.0703 135.612 16.0703C138.353 16.0703 139.936 17.913 139.936 20.8189V28.875H136.368V22.0001C136.368 20.0156 135.919 18.9053 134.455 18.9053C132.943 18.9053 132.163 20.0156 132.163 22.0001V28.875H128.572V16.3538Z" fill="#03151A"/>
<path d="M150.038 21.1496C149.826 19.6376 148.833 18.8108 147.581 18.8108C145.809 18.8108 144.817 20.2046 144.817 22.6144C144.817 25.0241 145.809 26.418 147.581 26.418C148.904 26.418 149.873 25.5911 150.086 23.961L153.771 24.1028C153.44 27.2213 150.912 29.1585 147.581 29.1585C143.707 29.1585 141.155 26.5834 141.155 22.6144C141.155 18.6454 143.707 16.0703 147.581 16.0703C150.818 16.0703 153.369 17.9366 153.7 20.9843L150.038 21.1496Z" fill="#03151A"/>
<path d="M154.422 22.6144C154.422 18.6454 156.974 16.0703 160.848 16.0703C164.298 16.0703 166.991 18.4564 166.967 22.8743V23.5358H158.155C158.25 25.4021 159.242 26.5125 160.848 26.5125C161.888 26.5125 162.809 25.9219 163.211 24.9533L166.802 25.2131C166.046 27.6465 163.707 29.1585 160.848 29.1585C156.974 29.1585 154.422 26.5834 154.422 22.6144ZM158.179 21.3859H163.353C163.164 19.4959 162.077 18.7163 160.848 18.7163C159.336 18.7163 158.368 19.7321 158.179 21.3859Z" fill="#03151A"/>
</svg>
