<svg width="131" height="42" viewBox="0 0 131 42" fill="none" xmlns="http://www.w3.org/2000/svg">
<g style="mix-blend-mode:multiply">
<circle cx="12.25" cy="15.75" r="12.25" fill="#1570EF"/>
</g>
<g style="mix-blend-mode:multiply">
<circle cx="22.75" cy="26.25" r="12.25" fill="#53B1FD"/>
</g>
<path d="M52.255 29.2294C47.4828 29.2294 43.75 25.3549 43.75 20.37C43.75 15.4087 47.4828 11.5579 52.255 11.5579C56.7201 11.5579 60.2166 14.5346 60.8072 18.8816H57.0036C56.602 16.4482 54.712 14.7709 52.3022 14.7709C49.3964 14.7709 47.4355 17.0625 47.4355 20.37C47.4355 23.7011 49.3964 26.0164 52.3022 26.0164C54.712 26.0164 56.5784 24.3154 57.0036 21.882H60.8072C60.2166 26.2762 56.7201 29.2294 52.255 29.2294Z" fill="#03151A"/>
<path d="M69.5989 28.875V27.3157C68.772 28.497 67.5199 29.1112 65.7953 29.1112C63.1729 29.1112 61.4246 27.5756 61.4246 25.2131C61.4246 22.7561 63.4091 21.4331 67.0946 21.4331C67.8034 21.4331 68.4176 21.4804 69.1973 21.5749V20.8189C69.1973 19.4014 68.394 18.5745 67.0238 18.5745C65.6063 18.5745 64.7558 19.4014 64.6376 20.8189H61.6845C61.8735 17.913 63.9761 16.023 67.0238 16.023C70.3313 16.023 72.2685 17.8421 72.2685 20.937V28.875H69.5989ZM64.5195 25.1186C64.5195 26.1817 65.2755 26.8432 66.504 26.8432C68.1814 26.8432 69.1973 25.9219 69.1973 24.4571V23.5594C68.4176 23.4412 67.8743 23.394 67.3073 23.394C65.4409 23.394 64.5195 23.9846 64.5195 25.1186Z" fill="#03151A"/>
<path d="M86.7455 22.5671C86.7455 26.2999 84.5483 29.1112 81.1463 29.1112C79.658 29.1112 78.3822 28.4734 77.4372 27.2449V33.4346H74.1533V16.2592H77.1773V18.102C78.146 16.7554 79.5398 16.023 81.1463 16.023C84.5483 16.023 86.7455 18.858 86.7455 22.5671ZM83.3671 22.5671C83.3671 20.2046 82.0205 18.9289 80.414 18.9289C78.8075 18.9289 77.4608 20.181 77.4608 22.5671C77.4608 24.9532 78.8075 26.1817 80.414 26.1817C82.0205 26.1817 83.3671 24.9769 83.3671 22.5671Z" fill="#03151A"/>
<path d="M98.5596 24.8351C98.5596 27.4811 96.5515 29.1112 92.9605 29.1112C89.3695 29.1112 87.3614 27.3866 87.1015 24.5752H90.2436C90.2673 25.8746 91.3776 26.7015 93.0078 26.7015C94.2835 26.7015 95.2521 26.2999 95.2521 25.4021C95.2521 24.5989 94.7324 24.2681 93.5275 24.0319L91.2595 23.6066C88.9915 23.205 87.6213 21.9529 87.6213 19.992C87.6213 17.6531 89.6294 16.023 92.7715 16.023C95.9373 16.023 98.1108 17.7004 98.347 20.4172H95.2049C95.0868 19.1887 94.1654 18.4327 92.7715 18.4327C91.5666 18.4327 90.7634 18.8816 90.7634 19.6849C90.7634 20.4409 91.2831 20.748 92.4171 20.9606L94.8505 21.4095C97.3075 21.882 98.5596 23.016 98.5596 24.8351Z" fill="#03151A"/>
<path d="M107.535 23.5594V16.2592H110.795V28.875H107.795V27.2212C107.109 28.3316 105.716 29.1112 104.109 29.1112C101.581 29.1112 99.7385 27.5756 99.7385 24.2917V16.2592H103.022V23.6539C103.022 25.4257 103.896 26.2054 105.219 26.2054C106.401 26.2054 107.535 25.2604 107.535 23.5594Z" fill="#03151A"/>
<path d="M116.108 28.875H112.801V11.9122H116.108V28.875Z" fill="#03151A"/>
<path d="M123.589 29.0876C119.809 29.0876 117.281 26.4652 117.281 22.5199C117.281 18.7635 119.903 16.023 123.542 16.023C127.534 16.023 130.18 19.2596 129.59 23.3704H120.636C120.848 25.4257 121.841 26.5597 123.518 26.5597C124.959 26.5597 125.928 25.851 126.306 24.5989H129.566C128.857 27.4575 126.66 29.0876 123.589 29.0876ZM123.471 18.4327C121.935 18.4327 120.966 19.425 120.683 21.2914H126.117C126.022 19.5431 125.03 18.4327 123.471 18.4327Z" fill="#03151A"/>
</svg>
