<svg width="205" height="42" viewBox="0 0 205 42" fill="none" xmlns="http://www.w3.org/2000/svg">
<path d="M14 7L18.4548 16.5452L28 21L18.4548 25.4548L14 35L9.54523 25.4548L0 21L9.54523 16.5452L14 7Z" fill="#7839EE"/>
<path opacity="0.5" d="M17.5411 27.4125L23.1008 26.456L26.2508 35L29.4008 26.456L38.3752 28L32.5508 21L38.3752 14L29.4008 15.544L26.2508 7L23.1008 15.544L17.5411 14.5875L18.4548 16.5452L28 21L18.4548 25.4548L17.5411 27.4125Z" fill="#7839EE"/>
<path d="M54.6604 29.1796C49.0271 29.1796 45.5 25.4494 45.5 19.5117C45.5 13.6501 49.2301 9.79306 54.838 9.79306C59.5324 9.79306 62.9073 12.4828 63.4909 16.6951H59.1518C58.5935 14.8173 56.9949 13.7516 54.7365 13.7516C51.6915 13.7516 49.8391 15.9084 49.8391 19.4863C49.8391 23.0134 51.7169 25.2211 54.7365 25.2211C57.0456 25.2211 58.7458 24.0792 59.2533 22.2268H63.5163C62.8565 26.4137 59.3548 29.1796 54.6604 29.1796Z" fill="#03151A"/>
<path d="M64.8445 22.5059C64.8445 18.4967 67.788 15.8069 71.848 15.8069C75.8826 15.8069 78.8261 18.4967 78.8261 22.5059C78.8261 26.5152 75.8826 29.1796 71.848 29.1796C67.788 29.1796 64.8445 26.5152 64.8445 22.5059ZM68.7776 22.4806C68.7776 24.4091 70.021 25.6778 71.848 25.6778C73.6496 25.6778 74.893 24.4091 74.893 22.4806C74.893 20.5774 73.6496 19.3087 71.848 19.3087C70.021 19.3087 68.7776 20.5774 68.7776 22.4806Z" fill="#03151A"/>
<path d="M84.7456 28.8751H80.8379V16.1876H84.5172L84.771 17.5071C85.5576 16.4159 87.004 15.7816 88.6534 15.7816C91.673 15.7816 93.4239 17.7101 93.4239 21.0342V28.8751H89.5161V21.9731C89.5161 20.3744 88.628 19.3341 87.2831 19.3341C85.7352 19.3341 84.7456 20.3491 84.7456 21.9223V28.8751Z" fill="#03151A"/>
<path d="M94.9105 24.8658H98.6152C98.666 25.7539 99.3257 26.2868 100.518 26.2868C101.736 26.2868 102.295 25.8554 102.295 25.1957C102.295 24.8151 102.092 24.4091 101.153 24.2061L98.8182 23.6986C96.4837 23.1911 95.3419 22.1761 95.3419 19.9431C95.3419 17.3041 97.6002 15.7816 100.645 15.7816C103.589 15.7816 105.644 17.5071 105.644 20.0699H101.939C101.939 19.2072 101.406 18.6236 100.468 18.6236C99.5795 18.6236 99.0212 19.0803 99.0212 19.7654C99.0212 20.3491 99.5034 20.6789 100.391 20.8819L102.751 21.3894C104.832 21.8462 105.974 22.8104 105.974 24.8404C105.974 27.5556 103.665 29.2049 100.366 29.2049C97.0166 29.2049 94.9105 27.4287 94.9105 24.8658Z" fill="#03151A"/>
<path d="M115.248 25.4748L115.704 28.6213C114.969 28.9766 114.004 29.1796 112.939 29.1796C110.325 29.1796 108.498 27.9869 108.498 24.4344V19.4356H106.569V16.1876H108.498V12.2544H112.406V16.1876H115.222V19.4356H112.406V23.6224C112.406 25.2211 113.04 25.7032 113.954 25.7032C114.334 25.7032 114.791 25.6271 115.248 25.4748Z" fill="#03151A"/>
<path d="M122.837 29.2049C119.005 29.2049 116.265 26.4137 116.265 22.5059C116.265 18.5474 118.929 15.7816 122.761 15.7816C126.744 15.7816 129.231 18.3952 129.231 22.5313V23.5209L120.02 23.5717C120.248 25.2464 121.187 26.0331 122.913 26.0331C124.385 26.0331 125.425 25.5002 125.704 24.5867H129.282C128.825 27.4033 126.313 29.2049 122.837 29.2049ZM122.786 18.9534C121.238 18.9534 120.375 19.6386 120.071 21.1611H125.349C125.349 19.8162 124.359 18.9534 122.786 18.9534Z" fill="#03151A"/>
<path d="M135.199 28.8751H131.291V9.74231H135.199V28.8751Z" fill="#03151A"/>
<path d="M141.785 28.8751H137.877V9.74231H141.785V28.8751Z" fill="#03151A"/>
<path d="M154.181 16.1876H157.759V28.8751H154.08L153.877 27.2511C153.141 28.2153 151.745 29.2303 149.741 29.2303C145.96 29.2303 143.778 26.3376 143.778 22.3283C143.778 18.2429 146.239 15.7816 149.766 15.7816C151.568 15.7816 153.268 16.5682 153.978 17.7354L154.181 16.1876ZM153.826 22.5313C153.826 20.6282 152.557 19.3594 150.73 19.3594C148.878 19.3594 147.711 20.6536 147.711 22.5313C147.711 24.4091 148.878 25.7032 150.73 25.7032C152.557 25.7032 153.826 24.4344 153.826 22.5313Z" fill="#03151A"/>
<path d="M167.926 25.4748L168.382 28.6213C167.647 28.9766 166.682 29.1796 165.617 29.1796C163.003 29.1796 161.176 27.9869 161.176 24.4344V19.4356H159.247V16.1876H161.176V12.2544H165.084V16.1876H167.9V19.4356H165.084V23.6224C165.084 25.2211 165.718 25.7032 166.632 25.7032C167.012 25.7032 167.469 25.6271 167.926 25.4748Z" fill="#03151A"/>
<path d="M171.68 14.2083C170.437 14.2083 169.447 13.2187 169.447 11.9753C169.447 10.7319 170.437 9.76768 171.68 9.76768C172.898 9.76768 173.888 10.7319 173.888 11.9753C173.888 13.2187 172.898 14.2083 171.68 14.2083ZM169.751 28.8751V16.1876H173.659V28.8751H169.751Z" fill="#03151A"/>
<path d="M175.652 22.5059C175.652 18.4967 178.595 15.8069 182.655 15.8069C186.69 15.8069 189.634 18.4967 189.634 22.5059C189.634 26.5152 186.69 29.1796 182.655 29.1796C178.595 29.1796 175.652 26.5152 175.652 22.5059ZM179.585 22.4806C179.585 24.4091 180.828 25.6778 182.655 25.6778C184.457 25.6778 185.7 24.4091 185.7 22.4806C185.7 20.5774 184.457 19.3087 182.655 19.3087C180.828 19.3087 179.585 20.5774 179.585 22.4806Z" fill="#03151A"/>
<path d="M195.553 28.8751H191.645V16.1876H195.325L195.578 17.5071C196.365 16.4159 197.811 15.7816 199.461 15.7816C202.48 15.7816 204.231 17.7101 204.231 21.0342V28.8751H200.324V21.9731C200.324 20.3744 199.435 19.3341 198.091 19.3341C196.543 19.3341 195.553 20.3491 195.553 21.9223V28.8751Z" fill="#03151A"/>
</svg>
