<svg width="127" height="42" viewBox="0 0 127 42" fill="none" xmlns="http://www.w3.org/2000/svg">
<path fill-rule="evenodd" clip-rule="evenodd" d="M13.325 4.37463C10.5115 4.37463 7.91179 5.8756 6.50506 8.31213L1.45324 17.0621C0.0465114 19.4987 0.0465089 22.5006 1.45324 24.9371L6.50506 33.6871C7.91179 36.1237 10.5115 37.6246 13.325 37.6246H23.4286C26.2421 37.6246 28.8419 36.1237 30.2486 33.6871L35.3004 24.9371C36.7071 22.5006 36.7071 19.4987 35.3004 17.0621L30.2486 8.31213C28.8419 5.8756 26.2421 4.37463 23.4286 4.37463H13.325ZM23.4286 9.62463L17.1139 9.62464C16.1035 9.62464 15.4722 10.7183 15.9781 11.5929C17.5391 14.2912 19.1038 16.9875 20.6625 19.6871C21.1314 20.4993 21.1314 21.5 20.6625 22.3121C19.1038 25.0118 17.5391 27.7081 15.9781 30.4064C15.4722 31.281 16.1035 32.3746 17.1139 32.3746H23.4286C24.3665 32.3746 25.233 31.8743 25.702 31.0621L30.7538 22.3121C31.2227 21.5 31.2227 20.4993 30.7538 19.6871L25.702 10.9371C25.233 10.125 24.3665 9.62463 23.4286 9.62463Z" fill="#03151A"/>
<path d="M58.6101 17.9603H54.6411C54.1923 16.3774 53.0583 15.5269 51.4518 15.5269C49.0184 15.5269 47.6245 17.5586 47.6245 20.8661C47.6245 24.1973 48.9948 26.1581 51.4518 26.1581C52.9638 26.1581 54.145 25.3549 54.5939 23.8429H58.6101C57.7833 27.3866 54.9246 29.253 51.499 29.253C46.7031 29.253 43.75 26.0636 43.75 20.8661C43.75 15.6686 46.7031 12.432 51.5463 12.432C54.9955 12.432 57.925 14.2984 58.6101 17.9603Z" fill="#03151A"/>
<path d="M65.7512 29.253C61.9003 29.253 59.5142 26.7015 59.5142 22.5199C59.5142 18.1965 61.9712 15.7631 65.7512 15.7631C69.602 15.7631 72.0118 18.3619 72.0118 22.5199C72.0118 26.8196 69.5312 29.253 65.7512 29.253ZM65.7512 26.3235C67.4285 26.3235 68.3027 25.0005 68.3027 22.5199C68.3027 20.0629 67.4049 18.6926 65.7512 18.6926C64.0974 18.6926 63.2233 20.0393 63.2233 22.5199C63.2233 24.9769 64.121 26.3235 65.7512 26.3235Z" fill="#03151A"/>
<path d="M73.4509 28.875V16.1648H77.0655V17.9366C77.8687 16.4246 79.0972 15.7631 80.3966 15.7631C80.9164 15.7631 81.3889 15.9049 81.6487 16.1648V19.2124C81.2235 19.1179 80.7746 19.0706 80.2076 19.0706C78.0341 19.0706 77.0655 20.2991 77.0655 22.3073V28.875H73.4509Z" fill="#03151A"/>
<path d="M94.3693 24.6934C93.7078 27.6229 91.3453 29.253 88.2268 29.253C84.2815 29.253 81.8481 26.7015 81.8481 22.5199C81.8481 18.1965 84.3051 15.7631 88.0851 15.7631C91.8887 15.7631 94.2748 18.291 94.2748 22.449V23.2523H85.5336C85.7226 25.284 86.6676 26.3708 88.2268 26.3708C89.4081 26.3708 90.2113 25.851 90.5893 24.6934H94.3693ZM88.0851 18.6454C86.7385 18.6454 85.888 19.5195 85.6045 21.1733H90.5421C90.2586 19.5195 89.4081 18.6454 88.0851 18.6454Z" fill="#03151A"/>
<path d="M103.534 29.253C98.5489 29.253 95.4777 26.04 95.4777 20.8661C95.4777 15.6686 98.5489 12.432 103.534 12.432C108.495 12.432 111.566 15.6686 111.566 20.8661C111.566 26.04 108.495 29.253 103.534 29.253ZM103.534 26.1581C106.156 26.1581 107.692 24.1736 107.692 20.8661C107.692 17.5586 106.156 15.5269 103.534 15.5269C100.888 15.5269 99.3522 17.535 99.3522 20.8661C99.3522 24.1736 100.888 26.1581 103.534 26.1581Z" fill="#03151A"/>
<path d="M116.782 16.9444C116.782 20.37 126.232 17.4641 126.232 24.0319C126.232 27.3394 123.492 29.253 119.736 29.253C115.932 29.253 113.215 27.5048 112.648 23.8429H116.641C116.948 25.4258 118.058 26.2999 119.759 26.2999C121.46 26.2999 122.358 25.6148 122.358 24.5044C122.358 20.9134 112.884 23.6539 112.884 17.2988C112.884 14.6055 115.129 12.432 119.074 12.432C122.405 12.432 125.287 14.0149 125.784 17.724H121.744C121.413 16.1411 120.492 15.3851 118.932 15.3851C117.609 15.3851 116.782 15.9994 116.782 16.9444Z" fill="#03151A"/>
</svg>
