<svg width="20" height="20" viewBox="0 0 20 20" fill="none" xmlns="http://www.w3.org/2000/svg">
<path d="M17.7017 10.5391C17.7855 10.49 17.8945 10.5438 17.9028 10.6406C18.046 12.3006 18.1589 13.6091 18.1128 14.6357C18.0656 15.6865 17.8493 16.5466 17.2476 17.2412C16.6409 17.9414 15.8333 18.2533 14.8286 18.4004C13.8564 18.5426 12.6048 18.543 11.0298 18.543H8.96729C7.39201 18.543 6.13973 18.5427 5.16748 18.4004C4.16284 18.2533 3.35514 17.9415 2.74854 17.2412C2.14691 16.5466 1.93148 15.6864 1.88428 14.6357C1.83818 13.6091 1.9501 12.3006 2.09326 10.6406C2.1016 10.5439 2.21058 10.4904 2.29443 10.5391C2.71036 10.7822 3.15428 10.9557 3.59326 11.085C3.99257 11.2025 4.39218 11.32 4.7915 11.4375C5.62065 11.6815 6.44982 11.9254 7.27881 12.1699C8.27268 12.4631 9.10709 12.71 9.99854 12.71C10.8899 12.7099 11.7245 12.463 12.7183 12.1699C13.5473 11.9254 14.3764 11.6815 15.2056 11.4375C15.6049 11.32 16.0045 11.2025 16.4038 11.085C16.8428 10.9557 17.2857 10.7822 17.7017 10.5391ZM10.1313 1.25C10.5986 1.24995 11.0265 1.24947 11.3823 1.2959C11.7788 1.34766 12.168 1.46576 12.519 1.75488C12.8605 2.03622 13.0621 2.39498 13.2153 2.77148C13.3596 3.12592 13.4905 3.57333 13.6411 4.08984L13.731 4.375H15.5591C16.0707 4.37481 16.4341 4.37461 16.7407 4.44531C17.5991 4.64333 18.3317 5.26085 18.5093 6.12305C18.5719 6.42695 18.5296 6.77117 18.481 7.17285C18.4007 7.83721 18.1873 8.46767 17.7153 8.95898C17.2876 9.40418 16.7154 9.68949 16.0522 9.88477L12.4839 10.9355C11.384 11.2595 10.708 11.458 9.99951 11.458C9.29092 11.458 8.61512 11.2595 7.51514 10.9355L3.94678 9.88477C3.28358 9.6895 2.71146 9.40416 2.28369 8.95898C1.81169 8.46767 1.59828 7.83721 1.51807 7.17285C1.46939 6.77115 1.42715 6.42696 1.48975 6.12305C1.66732 5.26102 2.39913 4.64344 3.25732 4.44531C3.56403 4.37456 3.92822 4.37481 4.43994 4.375H6.27686C6.30417 4.28002 6.33122 4.18472 6.35889 4.08984C6.50949 3.57338 6.64041 3.12589 6.78467 2.77148C6.93796 2.39494 7.13943 2.03621 7.48096 1.75488C7.83202 1.4657 8.22112 1.34764 8.61768 1.2959C8.9734 1.24951 9.40061 1.24995 9.86768 1.25C9.95552 1.25001 10.044 1.25001 10.1313 1.25ZM9.91455 2.91699C9.38563 2.91699 9.06862 2.91858 8.8335 2.94922C8.53411 2.98828 8.44041 3.12335 8.32764 3.40039C8.23448 3.62937 8.14307 3.9321 8.01318 4.375H11.9868C11.8569 3.93192 11.7646 3.62941 11.6714 3.40039C11.5586 3.12339 11.4658 2.98831 11.1665 2.94922C10.9314 2.91854 10.6144 2.91699 10.0854 2.91699H9.91455Z" fill="#022B36"/>
</svg>
