<svg width="24" height="24" viewBox="0 0 24 24" fill="none" xmlns="http://www.w3.org/2000/svg">
<path d="M14.5351 19H9.44507C9.47833 19.2855 9.49668 19.5726 9.50007 19.86V20H14.5001V19.68C14.5001 19.455 14.5001 19.225 14.5351 19ZM12.9201 12.5H11.0801L11.9301 18H12.0701L12.9201 12.5Z" fill="#022B36"/>
<path d="M9.26 18H10.915L10.07 12.5H9.5C9.36739 12.5 9.24021 12.4473 9.14645 12.3536C9.05268 12.2598 9 12.1326 9 12C9 11.8674 9.05268 11.7402 9.14645 11.6464C9.24021 11.5527 9.36739 11.5 9.5 11.5H14.5C14.6326 11.5 14.7598 11.5527 14.8536 11.6464C14.9473 11.7402 15 11.8674 15 12C15 12.1326 14.9473 12.2598 14.8536 12.3536C14.7598 12.4473 14.6326 12.5 14.5 12.5H13.93L13.085 18H14.72C14.9838 16.9454 15.522 15.9793 16.28 15.2C17.1235 14.3415 17.6894 13.2492 17.904 12.065C18.1187 10.8808 17.9723 9.65937 17.4838 8.55944C16.9953 7.45951 16.1873 6.53191 15.1648 5.89715C14.1423 5.26239 12.9525 4.9498 11.75 5C10.2253 5.07521 8.78534 5.72405 7.71894 6.81642C6.65254 7.90878 6.03852 9.3639 6 10.89C5.9862 11.6807 6.12885 12.4663 6.41974 13.2017C6.71063 13.9371 7.14402 14.6077 7.695 15.175C8.45159 15.9659 8.99073 16.9391 9.26 18ZM9.57 21C9.68057 21.4282 9.92997 21.8077 10.2792 22.0792C10.6284 22.3506 11.0577 22.4986 11.5 22.5H12.5C12.9423 22.4986 13.3716 22.3506 13.7208 22.0792C14.07 21.8077 14.3194 21.4282 14.43 21H9.57ZM12 4C11.8674 4 11.7402 3.94732 11.6464 3.85355C11.5527 3.75979 11.5 3.63261 11.5 3.5V1.5C11.5 1.36739 11.5527 1.24021 11.6464 1.14645C11.7402 1.05268 11.8674 1 12 1C12.1326 1 12.2598 1.05268 12.3536 1.14645C12.4473 1.24021 12.5 1.36739 12.5 1.5V3.5C12.5 3.63261 12.4473 3.75979 12.3536 3.85355C12.2598 3.94732 12.1326 4 12 4ZM18 6.5C17.9342 6.50038 17.869 6.48777 17.808 6.46289C17.7471 6.438 17.6917 6.40134 17.645 6.355C17.5981 6.30852 17.5609 6.25322 17.5356 6.19229C17.5102 6.13136 17.4971 6.06601 17.4971 6C17.4971 5.93399 17.5102 5.86864 17.5356 5.80771C17.5609 5.74678 17.5981 5.69148 17.645 5.645L19.645 3.645C19.6916 3.59838 19.747 3.5614 19.8079 3.53617C19.8688 3.51094 19.9341 3.49795 20 3.49795C20.0659 3.49795 20.1312 3.51094 20.1921 3.53617C20.253 3.5614 20.3084 3.59838 20.355 3.645C20.4016 3.69162 20.4386 3.74696 20.4638 3.80788C20.4891 3.86879 20.502 3.93407 20.502 4C20.502 4.06593 20.4891 4.13121 20.4638 4.19212C20.4386 4.25304 20.4016 4.30838 20.355 4.355L18.355 6.355C18.3083 6.40134 18.2529 6.438 18.192 6.46289C18.131 6.48777 18.0658 6.50038 18 6.5ZM6 6.5C5.9342 6.50038 5.86897 6.48777 5.80805 6.46289C5.74713 6.438 5.69172 6.40134 5.645 6.355L3.645 4.355C3.59838 4.30838 3.5614 4.25304 3.53617 4.19212C3.51094 4.13121 3.49795 4.06593 3.49795 4C3.49795 3.93407 3.51094 3.86879 3.53617 3.80788C3.5614 3.74696 3.59838 3.69162 3.645 3.645C3.69162 3.59838 3.74696 3.5614 3.80788 3.53617C3.86879 3.51094 3.93407 3.49795 4 3.49795C4.06593 3.49795 4.13121 3.51094 4.19212 3.53617C4.25304 3.5614 4.30838 3.59838 4.355 3.645L6.355 5.645C6.40186 5.69148 6.43906 5.74678 6.46445 5.80771C6.48983 5.86864 6.5029 5.93399 6.5029 6C6.5029 6.06601 6.48983 6.13136 6.46445 6.19229C6.43906 6.25322 6.40186 6.30852 6.355 6.355C6.30828 6.40134 6.25287 6.438 6.19195 6.46289C6.13103 6.48777 6.0658 6.50038 6 6.5ZM21.5 12.5H19.5C19.3674 12.5 19.2402 12.4473 19.1464 12.3536C19.0527 12.2598 19 12.1326 19 12C19 11.8674 19.0527 11.7402 19.1464 11.6464C19.2402 11.5527 19.3674 11.5 19.5 11.5H21.5C21.6326 11.5 21.7598 11.5527 21.8536 11.6464C21.9473 11.7402 22 11.8674 22 12C22 12.1326 21.9473 12.2598 21.8536 12.3536C21.7598 12.4473 21.6326 12.5 21.5 12.5ZM4.5 12.5H2.5C2.36739 12.5 2.24021 12.4473 2.14645 12.3536C2.05268 12.2598 2 12.1326 2 12C2 11.8674 2.05268 11.7402 2.14645 11.6464C2.24021 11.5527 2.36739 11.5 2.5 11.5H4.5C4.63261 11.5 4.75979 11.5527 4.85355 11.6464C4.94732 11.7402 5 11.8674 5 12C5 12.1326 4.94732 12.2598 4.85355 12.3536C4.75979 12.4473 4.63261 12.5 4.5 12.5Z" fill="#022B36"/>
</svg>
