<svg width="20" height="20" viewBox="0 0 20 20" fill="none" xmlns="http://www.w3.org/2000/svg">
<path d="M2.93335 8.13208C3.04246 8.17116 3.0424 8.36106 3.04175 8.74146C3.04174 8.74622 3.04175 8.75134 3.04175 8.7561C3.04175 13.2858 6.71415 16.9583 11.2439 16.9583C11.2487 16.9583 11.2538 16.9583 11.2585 16.9583C11.6389 16.9576 11.8288 16.9575 11.8679 17.0667C11.9067 17.1757 11.7698 17.2876 11.4958 17.512C10.3921 18.4158 8.98093 18.9582 7.44312 18.9583C3.9077 18.9583 1.04175 16.0923 1.04175 12.5569C1.0418 11.0191 1.58425 9.60786 2.48804 8.50415C2.71239 8.23017 2.82432 8.09331 2.93335 8.13208ZM11.6667 1.04224C15.6936 1.04239 18.9576 4.3064 18.9578 8.33325C18.9578 12.3602 15.6937 15.6251 11.6667 15.6252C7.63967 15.6252 4.37476 12.3603 4.37476 8.33325C4.37491 4.30631 7.63977 1.04224 11.6667 1.04224ZM11.6541 4.37524C11.3089 4.37524 11.0291 4.65507 11.0291 5.00024V5.20142C10.1773 5.43723 9.49009 6.14358 9.48999 7.08521C9.48999 7.57722 9.63441 8.07769 10.075 8.42896C10.4834 8.7545 11.0398 8.86255 11.6541 8.86255C12.1655 8.86255 12.416 8.95469 12.532 9.04419C12.6118 9.10586 12.7087 9.22818 12.7087 9.58228C12.7087 9.87437 12.6067 10.0141 12.4792 10.1047C12.3201 10.2179 12.0457 10.301 11.6541 10.301C11.0286 10.301 10.6678 9.94569 10.6101 9.68188C10.5365 9.34476 10.2041 9.13093 9.86694 9.20435C9.52971 9.27797 9.31578 9.61125 9.3894 9.94849C9.56286 10.7426 10.2405 11.287 11.0291 11.4768V11.6672C11.0292 12.0122 11.309 12.2922 11.6541 12.2922C11.9991 12.2922 12.2789 12.0122 12.2791 11.6672V11.4973C12.6087 11.4365 12.9284 11.3192 13.2039 11.1233C13.6839 10.7819 13.9587 10.2499 13.9587 9.58228C13.9587 8.97643 13.7754 8.4254 13.2957 8.05493C12.8519 7.71234 12.2621 7.61255 11.6541 7.61255C11.1491 7.61255 10.9357 7.51628 10.8542 7.45142C10.805 7.41216 10.74 7.33564 10.74 7.08521C10.7401 6.7648 11.067 6.36646 11.6541 6.36646C12.1694 6.36647 12.4994 6.68571 12.5574 6.97485C12.6252 7.31319 12.9544 7.53271 13.2927 7.46509C13.631 7.39729 13.8505 7.06803 13.783 6.72974C13.6295 5.96393 13.0203 5.40414 12.2791 5.20044V5.00024C12.2791 4.65508 11.9992 4.37526 11.6541 4.37524Z" fill="#022B36"/>
</svg>
