<svg width="82" height="82" viewBox="0 0 82 82" fill="none" xmlns="http://www.w3.org/2000/svg">
<rect width="82" height="82" rx="8" fill="#F0F0F0"/>
<path opacity="0.7" d="M26.0374 32.464C26.788 29.6631 29.667 26.7841 32.4679 26.0335L49.9296 21.3539C52.7305 20.6033 54.3925 22.2654 53.6419 25.0662L48.9624 42.528C48.2118 45.3288 45.3327 48.2078 42.5319 48.9584L25.0701 53.638C22.2693 54.3886 20.6072 52.7265 21.3578 49.9257L26.0374 32.464Z" fill="#6938EF"/>
<path opacity="0.7" d="M33.0355 39.464C33.7861 36.6631 36.6651 33.7841 39.4659 33.0335L56.9276 28.3539C59.7285 27.6033 61.3905 29.2654 60.6399 32.0662L55.9604 49.528C55.2098 52.3288 52.3308 55.2078 49.5299 55.9584L32.0682 60.638C29.2673 61.3886 27.6053 59.7265 28.3559 56.9257L33.0355 39.464Z" fill="#6938EF"/>
</svg>
