<svg width="82" height="82" viewBox="0 0 82 82" fill="none" xmlns="http://www.w3.org/2000/svg">
<rect width="82" height="82" rx="8" fill="#F0F0F0"/>
<path d="M60.9912 40.4176C60.683 29.6413 51.8504 21 40.9995 21C37.5631 21 34.3292 21.8667 31.5043 23.3933L60.9912 40.4176Z" fill="#0086C9"/>
<path d="M28.6923 25.2339C27.8646 25.881 27.0891 26.5919 26.3732 27.3591L60.1307 46.849C60.4341 45.8553 60.6622 44.8288 60.8084 43.7762L28.6923 25.2339Z" fill="#0086C9"/>
<path d="M55.6261 54.6406C54.9103 55.4078 54.1348 56.1187 53.3071 56.7658L21.1907 38.2234C21.3369 37.1707 21.565 36.1442 21.8685 35.1506L55.6261 54.6406Z" fill="#0086C9"/>
<path d="M57.523 52.2717L22.9739 32.3247C23.4105 31.4191 23.9134 30.5514 24.4762 29.728L59.0253 49.6749C58.5887 50.5805 58.0858 51.4482 57.523 52.2717Z" fill="#0086C9"/>
<path d="M40.9995 61C44.4361 61 47.6702 60.1333 50.4952 58.6064L21.0078 41.5819C21.3157 52.3585 30.1484 61 40.9995 61Z" fill="#0086C9"/>
</svg>
