<svg width="20" height="20" viewBox="0 0 20 20" fill="none" xmlns="http://www.w3.org/2000/svg">
<g clip-path="url(#clip0_1_3925)">
<path d="M4.80126 15.2844H0.767741C0.444147 15.2844 0.181804 15.5467 0.181804 15.8703V19.4141C0.181804 19.7377 0.444147 20 0.767741 20H5.38723V15.8703C5.38719 15.5467 5.12489 15.2844 4.80126 15.2844ZM10.5926 12.0031H7.14501C6.82141 12.0031 6.55907 12.2655 6.55907 12.5891V20H11.1786V12.5891C11.1786 12.2655 10.9162 12.0031 10.5926 12.0031ZM18.664 3.16445L19.8449 1.88281C20.0027 1.71172 20.0441 1.46367 19.9507 1.25078C19.9051 1.14645 19.83 1.0577 19.7346 0.995399C19.6393 0.933096 19.5279 0.899943 19.414 0.9H15.6367V0.585938C15.6367 0.2625 15.3746 0 15.0507 0C14.7273 0 14.4648 0.2625 14.4648 0.585938V7.42188H12.9363C12.6127 7.42188 12.3504 7.68422 12.3504 8.00781V20H17.0695C17.3933 20 17.6554 19.7375 17.6554 19.4141V8.00781C17.6554 7.68437 17.3933 7.42188 17.0695 7.42188H15.6367V5.32539H19.414C19.6511 5.32539 19.8648 5.18242 19.9554 4.96328C20.046 4.74414 19.9956 4.4918 19.8277 4.32461L18.664 3.16445ZM9.94344 5.03066C10.0872 5.32059 10.4387 5.43902 10.7287 5.29527C11.0186 5.15148 11.1371 4.79992 10.9933 4.51C9.93102 2.36793 10.0385 2.58387 10.0231 2.55477C9.96848 2.45154 9.88429 2.367 9.7813 2.31199C9.67831 2.25699 9.56122 2.23404 9.44509 2.24609C9.44344 2.24625 9.44176 2.2466 9.44009 2.2468C9.39216 2.25219 9.52016 2.22707 7.30087 2.6941C6.98419 2.76074 6.78153 3.07148 6.84813 3.38816C6.90622 3.66414 7.14969 3.85355 7.42091 3.85355C7.50247 3.85355 7.44993 3.86031 8.48044 3.64344C7.71208 5.15164 6.71204 6.52609 5.49762 7.74059C4.00923 9.22902 2.27993 10.3959 0.35778 11.2089C0.0597333 11.335 -0.0796808 11.6787 0.0463739 11.9768C0.172507 12.2751 0.516452 12.4142 0.814264 12.2882C2.8761 11.4162 4.73059 10.1649 6.32622 8.56922C7.62673 7.26871 8.69829 5.79664 9.52204 4.18102L9.94344 5.03066Z" fill="#BFFF47"/>
</g>
<defs>
<clipPath id="clip0_1_3925">
<rect width="20" height="20" fill="white"/>
</clipPath>
</defs>
</svg>
