<svg width="172" height="48" viewBox="0 0 172 48" fill="none" xmlns="http://www.w3.org/2000/svg">
<path opacity="0.7" d="M0 14.526V33.4734L17.8947 21.2296V2.28223L0 14.526Z" fill="#BFFF47"/>
<path d="M0 33.474V14.5266L17.8947 26.7704V45.7178L0 33.474Z" fill="white" fill-opacity="0.9"/>
<path d="M40 14.526V33.4734L22.1053 21.2296V2.28223L40 14.526Z" fill="white" fill-opacity="0.9"/>
<path opacity="0.7" d="M40 33.474V14.5266L22.1053 26.7704V45.7178L40 33.474Z" fill="#BFFF47"/>
<path d="M56.48 24.192H60.896V24.864C60.896 26.336 61.216 27.472 61.856 28.272C62.496 29.056 63.544 29.448 65 29.448C66.44 29.448 67.48 29.072 68.12 28.32C68.776 27.568 69.104 26.528 69.104 25.2V15H73.64V25.416C73.64 27.096 73.28 28.536 72.56 29.736C71.84 30.92 70.824 31.824 69.512 32.448C68.216 33.072 66.712 33.384 65 33.384C63.304 33.384 61.816 33.064 60.536 32.424C59.256 31.784 58.264 30.856 57.56 29.64C56.856 28.408 56.504 26.928 56.504 25.2L56.48 24.192ZM84.3689 33.384C82.6409 33.384 81.1289 33.08 79.8329 32.472C78.5369 31.864 77.5289 31.016 76.8089 29.928C76.0889 28.84 75.7289 27.584 75.7289 26.16C75.7289 24.72 76.0889 23.464 76.8089 22.392C77.5289 21.304 78.5369 20.456 79.8329 19.848C81.1449 19.24 82.6569 18.936 84.3689 18.936C86.0969 18.936 87.6089 19.24 88.9049 19.848C90.2009 20.456 91.2089 21.304 91.9289 22.392C92.6649 23.464 93.0329 24.72 93.0329 26.16C93.0329 27.6 92.6649 28.864 91.9289 29.952C91.2089 31.024 90.2009 31.864 88.9049 32.472C87.6089 33.08 86.0969 33.384 84.3689 33.384ZM84.3689 30.024C85.2489 30.024 85.9929 29.872 86.6009 29.568C87.2249 29.248 87.6969 28.8 88.0169 28.224C88.3529 27.648 88.5209 26.96 88.5209 26.16C88.5209 25.36 88.3529 24.672 88.0169 24.096C87.6969 23.504 87.2249 23.056 86.6009 22.752C85.9929 22.432 85.2489 22.272 84.3689 22.272C83.5209 22.272 82.7849 22.432 82.1609 22.752C81.5369 23.056 81.0569 23.504 80.7209 24.096C80.3849 24.672 80.2169 25.36 80.2169 26.16C80.2169 26.96 80.3849 27.648 80.7209 28.224C81.0569 28.8 81.5369 29.248 82.1609 29.568C82.7849 29.872 83.5209 30.024 84.3689 30.024ZM95.2447 14.52H99.6847V23.472L99.0847 24.648V27.864L99.6847 29.016V33H95.2447V14.52ZM98.1967 26.16C98.4367 24.688 98.8927 23.416 99.5647 22.344C100.237 21.272 101.085 20.44 102.109 19.848C103.133 19.24 104.285 18.936 105.565 18.936C106.909 18.936 108.085 19.24 109.093 19.848C110.117 20.456 110.917 21.304 111.493 22.392C112.069 23.464 112.357 24.72 112.357 26.16C112.357 27.6 112.069 28.864 111.493 29.952C110.917 31.024 110.117 31.864 109.093 32.472C108.085 33.08 106.909 33.384 105.565 33.384C104.285 33.384 103.133 33.088 102.109 32.496C101.085 31.888 100.237 31.048 99.5647 29.976C98.8927 28.888 98.4367 27.616 98.1967 26.16ZM107.845 26.16C107.845 25.424 107.693 24.776 107.389 24.216C107.085 23.64 106.661 23.192 106.117 22.872C105.589 22.536 104.973 22.368 104.269 22.368C103.565 22.368 102.893 22.536 102.253 22.872C101.629 23.192 101.077 23.64 100.597 24.216C100.133 24.776 99.7727 25.424 99.5167 26.16C99.7727 26.896 100.133 27.552 100.597 28.128C101.077 28.688 101.629 29.136 102.253 29.472C102.893 29.792 103.565 29.952 104.269 29.952C104.973 29.952 105.589 29.792 106.117 29.472C106.661 29.136 107.085 28.688 107.389 28.128C107.693 27.552 107.845 26.896 107.845 26.16ZM114.581 14.52H119.021V33H114.581V14.52ZM126.069 37.344C125.109 37.344 124.253 37.224 123.501 36.984C122.765 36.744 122.045 36.384 121.341 35.904V32.76C122.061 33.224 122.733 33.552 123.357 33.744C123.997 33.952 124.693 34.056 125.445 34.056C126.117 34.056 126.701 33.912 127.197 33.624C127.709 33.336 128.133 32.808 128.469 32.04L133.941 19.32H138.669L131.973 33.432C131.525 34.392 130.989 35.16 130.365 35.736C129.741 36.312 129.061 36.72 128.325 36.96C127.605 37.216 126.853 37.344 126.069 37.344ZM126.597 31.92L120.669 19.32H125.565L130.893 31.92H126.597ZM139.389 33V29.88L149.133 21.888L152.205 22.56H139.461V19.32H153.885V22.44L144.165 30.432L141.549 29.76H153.933V33H139.389ZM163.819 33.384C162.187 33.384 160.723 33.08 159.427 32.472C158.147 31.864 157.139 31.016 156.403 29.928C155.667 28.84 155.299 27.568 155.299 26.112C155.299 24.688 155.651 23.44 156.355 22.368C157.059 21.296 158.027 20.456 159.259 19.848C160.507 19.24 161.915 18.936 163.483 18.936C165.083 18.936 166.459 19.288 167.611 19.992C168.763 20.696 169.651 21.688 170.275 22.968C170.899 24.248 171.211 25.752 171.211 27.48H158.875V24.672H168.763L167.155 25.68C167.107 24.928 166.923 24.296 166.603 23.784C166.299 23.256 165.891 22.856 165.379 22.584C164.867 22.296 164.259 22.152 163.555 22.152C162.787 22.152 162.123 22.304 161.563 22.608C161.003 22.912 160.563 23.336 160.243 23.88C159.939 24.424 159.787 25.056 159.787 25.776C159.787 26.688 159.987 27.464 160.387 28.104C160.803 28.744 161.395 29.232 162.163 29.568C162.947 29.904 163.899 30.072 165.019 30.072C166.043 30.072 167.067 29.936 168.091 29.664C169.115 29.376 170.035 28.976 170.851 28.464V31.368C169.923 32.008 168.859 32.504 167.659 32.856C166.475 33.208 165.195 33.384 163.819 33.384Z" fill="white"/>
</svg>
