<svg width="82" height="82" viewBox="0 0 82 82" fill="none" xmlns="http://www.w3.org/2000/svg">
<rect width="82" height="82" rx="8" fill="#F0F0F0"/>
<path fill-rule="evenodd" clip-rule="evenodd" d="M58.3719 31V39.0492H48.4022V36.7565L58.3719 31Z" fill="#1570EF"/>
<path opacity="0.9" fill-rule="evenodd" clip-rule="evenodd" d="M58.3699 31.0001L48.4001 36.7566L41.0488 32.513V21L58.3699 31.0001Z" fill="#1570EF"/>
<path opacity="0.8" fill-rule="evenodd" clip-rule="evenodd" d="M41.0512 21V32.513L33.7022 36.7566L23.7325 31.0001L41.0512 21Z" fill="#1570EF"/>
<path opacity="0.7" fill-rule="evenodd" clip-rule="evenodd" d="M33.7004 36.7565V45.2433L23.7307 50.9993V31L33.7004 36.7565Z" fill="#1570EF"/>
<path opacity="0.6" fill-rule="evenodd" clip-rule="evenodd" d="M41.0494 49.4871V61L23.7307 50.9994L33.7004 45.2434L41.0494 49.4871Z" fill="#1570EF"/>
<path opacity="0.5" fill-rule="evenodd" clip-rule="evenodd" d="M58.3699 50.9994L41.0488 61V49.4871L48.4001 45.2434L58.3699 50.9994Z" fill="#1570EF"/>
<path opacity="0.4" fill-rule="evenodd" clip-rule="evenodd" d="M58.372 42.9507V50.9994L48.4022 45.2434V42.9507H58.372Z" fill="#1570EF"/>
</svg>
