<svg width="82" height="82" viewBox="0 0 82 82" fill="none" xmlns="http://www.w3.org/2000/svg">
<rect width="82" height="82" rx="8" fill="#F0F0F0"/>
<path d="M42.9706 24.0331C39.8464 20.9089 34.781 20.9089 31.6569 24.0331L20.3431 35.3468C17.219 38.471 17.219 43.5363 20.3431 46.6605L31.6569 57.9742C34.781 61.0984 39.8464 61.0984 42.9706 57.9742L48.3688 52.5759C43.8749 50.8422 40.6868 46.4815 40.6868 41.3762C40.6868 36.0675 44.134 31.5639 48.9122 29.9819C48.8187 29.8837 48.7238 29.7864 48.6274 29.6899L42.9706 24.0331Z" fill="#875BF7"/>
<path d="M48.3691 52.5798C49.7089 53.0966 51.1646 53.3799 52.6865 53.3799C59.3139 53.3799 64.6865 48.0073 64.6865 41.3799C64.6865 34.7525 59.3139 29.3799 52.6865 29.3799C51.368 29.3799 50.0992 29.5925 48.9125 29.9854C54.8748 36.2535 54.78 46.169 48.6279 52.321L48.3691 52.5798Z" fill="#EE46BC"/>
</svg>
