<svg width="82" height="82" viewBox="0 0 82 82" fill="none" xmlns="http://www.w3.org/2000/svg">
<rect width="82" height="82" rx="8" fill="#F0F0F0"/>
<path d="M41.0001 21C29.9543 21 21 29.9543 21 41.0001C21 52.0458 29.9543 61.0002 41.0001 61.0002C50.9101 61.0002 59.1367 53.7925 60.7236 44.3334H60.5801C59.0999 50.0842 53.8796 54.3335 47.6668 54.3335C40.303 54.3335 34.3334 48.3639 34.3334 41.0001C34.3334 33.6362 40.303 27.6667 47.6668 27.6667C53.8796 27.6667 59.0999 31.9159 60.5801 37.6667H60.7236C59.1367 28.2076 50.9101 21 41.0001 21Z" fill="#A4BCFD"/>
<path d="M21 41.0001C21 29.9543 29.9543 21 41.0001 21C50.9101 21 59.1367 28.2076 60.7236 37.6667H47.2467C45.7666 31.9159 40.5462 27.6667 34.3334 27.6667C26.9696 27.6667 21 33.6363 21 41.0001Z" fill="#3538CD"/>
<path d="M21 41.0002C21 52.0459 29.9543 61.0002 41.0001 61.0002C50.9101 61.0002 59.1367 53.7926 60.7236 44.3335H47.2467C45.7666 50.0843 40.5462 54.3336 34.3334 54.3336C26.9696 54.3336 21 48.364 21 41.0002Z" fill="#3538CD"/>
</svg>
