<svg width="20" height="20" viewBox="0 0 20 20" fill="none" xmlns="http://www.w3.org/2000/svg">
<path d="M15.0002 15.625C15.4603 15.6251 15.8331 15.998 15.8333 16.458C15.8333 17.0528 15.4712 17.4875 15.1233 17.7617C14.7659 18.0434 14.3 18.2608 13.7991 18.4277C12.7886 18.7646 11.4455 18.958 10.0002 18.958C8.55489 18.958 7.21103 18.7646 6.20044 18.4277C5.69969 18.2608 5.23449 18.0433 4.8772 17.7617C4.52921 17.4875 4.16626 17.0529 4.16626 16.458C4.16644 15.9979 4.54012 15.625 5.00024 15.625C5.43446 15.6251 5.79057 15.9577 5.82935 16.3818C5.84372 16.3976 5.86875 16.4208 5.90845 16.4521C6.05708 16.5693 6.32393 16.7121 6.72778 16.8467C7.52684 17.113 8.68418 17.292 10.0002 17.292C11.316 17.292 12.4727 17.1129 13.2717 16.8467C13.6756 16.7121 13.9424 16.5693 14.0911 16.4521C14.1308 16.4208 14.1557 16.3976 14.1702 16.3818C14.2089 15.9576 14.5659 15.625 15.0002 15.625ZM10.0002 1.04199C12.5425 1.04199 14.9572 2.58725 15.9661 5.0127C16.904 7.26814 16.3953 9.19489 15.342 10.8359C14.4724 12.1909 13.199 13.3977 12.0667 14.4707V14.4717C11.8664 14.6614 11.6701 14.8468 11.4817 15.0283C11.0839 15.4114 10.5525 15.625 10.0002 15.625C9.44799 15.625 8.91654 15.4114 8.5188 15.0283L8.51782 15.0264C8.31852 14.8332 8.11041 14.6359 7.89771 14.4336C6.77735 13.368 5.52107 12.173 4.6604 10.835C3.60598 9.19561 3.09536 7.2708 4.03442 5.0127C5.04322 2.58724 7.45801 1.04206 10.0002 1.04199ZM10.0002 5C8.61953 5 7.50024 6.11929 7.50024 7.5C7.50024 8.88071 8.61953 10 10.0002 10C11.3808 9.99986 12.5002 8.88062 12.5002 7.5C12.5002 6.11938 11.3808 5.00014 10.0002 5Z" fill="#022B36"/>
</svg>
