<svg width="19" height="20" viewBox="0 0 19 20" fill="none" xmlns="http://www.w3.org/2000/svg">
<path d="M7.26493 8.65957C9.36918 8.65957 10.8489 5.36793 10.8489 3.58397C10.8489 1.608 9.24131 0 7.26493 0C5.28855 0 3.68097 1.608 3.68097 3.58397C3.68097 5.36834 5.15698 8.65957 7.26493 8.65957ZM0.401248 18.1595H3.68097V15.5718C3.68097 15.3518 3.86105 15.1717 4.08101 15.1717C4.30098 15.1717 4.48106 15.3518 4.48106 15.5718V18.1595H7.96923V14.2639C7.96923 13.7261 8.18285 13.2103 8.56312 12.8299C8.94339 12.4496 9.45917 12.2358 9.997 12.2357H10.4891C10.5222 11.7578 10.7228 11.3068 11.0557 10.9622C11.3886 10.6175 11.8323 10.4014 12.3089 10.3519C11.5262 9.6706 10.5228 9.29673 9.48513 9.29973C9.42168 9.30039 9.35927 9.316 9.30298 9.34529C9.24669 9.37458 9.1981 9.41672 9.16114 9.4683L7.26493 12.0996L5.36544 9.4683C5.32844 9.41666 5.27978 9.37449 5.22341 9.3452C5.16704 9.3159 5.10456 9.30033 5.04104 9.29973C2.85333 9.29973 1.01303 10.9402 0.761002 13.0917L0.0057253 17.6958C-0.00406969 17.7529 -0.00127118 17.8115 0.0139257 17.8675C0.0291226 17.9234 0.0563513 17.9754 0.0937106 18.0197C0.169773 18.1077 0.281605 18.1595 0.40166 18.1595H0.401248Z" fill="#BFFF47"/>
<path d="M11.2851 12.3726V13.0362H9.99696C9.67148 13.037 9.35955 13.1666 9.1294 13.3968C8.89925 13.6269 8.76962 13.9388 8.76886 14.2643V18.7721C8.76962 19.0976 8.89925 19.4095 9.1294 19.6397C9.35955 19.8698 9.67148 19.9995 9.99696 20.0002H17.6447C17.9702 19.9995 18.2821 19.8698 18.5123 19.6397C18.7424 19.4095 18.872 19.0976 18.8728 18.7721V14.2643C18.872 13.9388 18.7424 13.6269 18.5123 13.3968C18.2821 13.1666 17.9702 13.037 17.6447 13.0362H16.357V12.3726C16.3568 12.2111 16.3248 12.0511 16.2628 11.9019C16.2007 11.7527 16.1099 11.6172 15.9955 11.5031C15.881 11.3891 15.7452 11.2987 15.5958 11.2372C15.4464 11.1756 15.2864 11.1442 15.1248 11.1445H12.5169C12.3553 11.1442 12.1953 11.1757 12.046 11.2373C11.8966 11.2988 11.7608 11.3892 11.6464 11.5033C11.532 11.6173 11.4413 11.7528 11.3792 11.902C11.3172 12.0512 11.2852 12.2111 11.2851 12.3726ZM12.0848 12.3726C12.0856 12.2586 12.1315 12.1496 12.2125 12.0693C12.2935 11.9891 12.4029 11.9441 12.5169 11.9442H15.1248C15.3608 11.9442 15.5569 12.1362 15.5569 12.3722V13.0362H12.0848V12.3726Z" fill="#BFFF47"/>
</svg>
