<svg width="82" height="82" viewBox="0 0 82 82" fill="none" xmlns="http://www.w3.org/2000/svg">
<rect width="82" height="82" rx="8" fill="#F0F0F0"/>
<path d="M53.3008 53H53.1993C53.1732 53.0402 53.147 53.0804 53.1206 53.1204C50.3602 54.9405 47.0538 55.9998 43.5 55.9998C33.835 55.9998 26 48.1648 26 38.4998C26 34.946 27.0593 31.6396 28.8794 28.8792C28.9195 28.8528 28.9597 28.8265 29 28.8004V28.6987C28.9594 28.7586 28.9192 28.8188 28.8794 28.8792C24.1325 32.0091 21 37.3886 21 43.4998C21 53.1648 28.835 60.9998 38.5 60.9998C44.6112 60.9998 49.9907 57.8673 53.1206 53.1204C53.1809 53.0806 53.241 53.0405 53.3008 53Z" fill="#7839EE"/>
<g opacity="0.5">
<path d="M61.0003 38.5C61.0003 44.6112 57.8678 49.9907 53.1209 53.1206C54.941 50.3602 56.0003 47.0538 56.0003 43.5C56.0003 33.835 48.1653 26 38.5003 26C34.9465 26 31.6401 27.0593 28.8797 28.8794C32.0096 24.1325 37.3891 21 43.5003 21C53.1653 21 61.0003 28.835 61.0003 38.5Z" fill="#7839EE"/>
<path d="M53.0003 53.1994C53.0406 53.1733 53.0808 53.147 53.1209 53.1206C53.0811 53.181 53.0409 53.2412 53.0003 53.3011V53.1994Z" fill="#7839EE"/>
<path d="M28.8009 29C28.827 28.9597 28.8533 28.9195 28.8797 28.8794C28.8193 28.9192 28.7591 28.9594 28.6992 29H28.8009Z" fill="#7839EE"/>
</g>
</svg>
